<?xml version="1.0" encoding="UTF-8"?><svg xmlns="http://www.w3.org/2000/svg" viewBox="0 0 465.87 180.38"><defs><style>.c,.d,.e{fill:#fff;}.f{fill:#00529f;}.d{stroke-width:5px;}.d,.e{stroke:#00529f;stroke-miterlimit:10;}.e{stroke-width:.25px;}</style></defs><g id="a"><circle class="d" cx="87.54" cy="91.53" r="59.45"/><circle class="f" cx="87.56" cy="91.52" r="53.65"/><g><path class="e" d="M81.16,75.69v-5.2c0-1.37,1.11-2.49,2.49-2.49h7.47c1.37,0,2.49,1.11,2.49,2.49v5.21h-12.45Z"/><polygon class="e" points="79.49 89.34 95.3 89.34 94.42 79.98 80.24 79.98 79.49 89.34"/><polygon class="e" points="78.74 103.82 96.64 103.82 95.65 93.44 79.58 93.44 78.74 103.82"/><polygon class="e" points="77.34 120.7 98.18 120.69 97.03 108.54 78.32 108.54 77.34 120.7"/><polygon class="e" points="75.86 138.97 99.86 138.96 98.53 125.2 76.99 125.2 75.86 138.97"/><g><circle class="c" cx="87.77" cy="54.21" r="7.56"/><circle class="f" cx="87.85" cy="54.22" r="4.12"/></g></g><g><path class="c" d="M161.43,75.77l1.28-2.51c2.2,2.16,6.12,3.74,10.17,3.74,5.76,0,8.27-2.42,8.27-5.46,0-8.45-18.97-3.26-18.97-14.65,0-4.53,3.52-8.45,11.35-8.45,3.48,0,7.08,1.01,9.55,2.73l-1.1,2.6c-2.64-1.72-5.72-2.55-8.45-2.55-5.63,0-8.14,2.51-8.14,5.59,0,8.45,18.97,3.34,18.97,14.57,0,4.53-3.61,8.41-11.49,8.41-4.62,0-9.15-1.63-11.44-4Z"/><path class="c" d="M188.71,64.11c0-9.02,6.87-15.67,16.15-15.67,4.49,0,8.54,1.5,11.27,4.49l-2.07,2.07c-2.51-2.55-5.59-3.65-9.11-3.65-7.44,0-13.03,5.46-13.03,12.76s5.59,12.76,13.03,12.76c3.52,0,6.6-1.1,9.11-3.7l2.07,2.07c-2.73,2.99-6.78,4.53-11.31,4.53-9.24,0-16.11-6.65-16.11-15.67Z"/><path class="c" d="M223.08,48.71h3.26v30.8h-3.26v-30.8Z"/><path class="c" d="M233.64,64.11c0-8.98,6.87-15.67,16.19-15.67s16.15,6.65,16.15,15.67-6.91,15.67-16.15,15.67-16.19-6.69-16.19-15.67Zm29.09,0c0-7.35-5.5-12.76-12.89-12.76s-12.98,5.41-12.98,12.76,5.54,12.76,12.98,12.76,12.89-5.41,12.89-12.76Z"/><path class="c" d="M299.02,48.71v30.8h-2.68l-19.8-25v25h-3.26v-30.8h2.68l19.85,25v-25h3.21Z"/></g><g><path class="c" d="M184.18,130.1h-17.16l-3.7,8.23h-3.39l14.08-30.8h3.21l14.08,30.8h-3.43l-3.7-8.23Zm-1.19-2.64l-7.39-16.55-7.39,16.55h14.79Z"/><path class="c" d="M192.32,135.69l1.41-2.46c1.85,1.45,4.97,2.6,8.23,2.6,4.4,0,6.21-1.5,6.21-3.78,0-6.03-15.01-1.28-15.01-10.43,0-3.78,3.26-6.6,9.15-6.6,2.99,0,6.25,.84,8.18,2.16l-1.36,2.51c-2.02-1.41-4.44-1.98-6.82-1.98-4.18,0-6.03,1.63-6.03,3.83,0,6.25,15.01,1.54,15.01,10.43,0,4-3.52,6.6-9.55,6.6-3.83,0-7.53-1.23-9.42-2.86Z"/><path class="c" d="M213.83,135.69l1.41-2.46c1.85,1.45,4.97,2.6,8.23,2.6,4.4,0,6.21-1.5,6.21-3.78,0-6.03-15.01-1.28-15.01-10.43,0-3.78,3.26-6.6,9.15-6.6,2.99,0,6.25,.84,8.18,2.16l-1.36,2.51c-2.02-1.41-4.44-1.98-6.82-1.98-4.18,0-6.03,1.63-6.03,3.83,0,6.25,15.01,1.54,15.01,10.43,0,4-3.52,6.6-9.55,6.6-3.83,0-7.53-1.23-9.42-2.86Z"/><path class="c" d="M236.23,126.75c0-6.86,5.02-11.75,11.79-11.75s11.75,4.88,11.75,11.75-4.97,11.79-11.75,11.79-11.79-4.93-11.79-11.79Zm20.38,0c0-5.41-3.65-9.02-8.58-9.02s-8.63,3.61-8.63,9.02,3.7,9.02,8.63,9.02,8.58-3.61,8.58-9.02Z"/><path class="c" d="M263.82,126.75c0-6.91,5.02-11.75,11.93-11.75,3.92,0,7.22,1.54,9.07,4.58l-2.33,1.58c-1.58-2.33-4.05-3.43-6.73-3.43-5.06,0-8.76,3.61-8.76,9.02s3.7,9.02,8.76,9.02c2.68,0,5.15-1.06,6.73-3.39l2.33,1.58c-1.85,2.99-5.15,4.58-9.07,4.58-6.91,0-11.93-4.88-11.93-11.79Z"/><path class="c" d="M290.22,107.87c0-1.19,1.01-2.2,2.29-2.2s2.29,.97,2.29,2.16c0,1.28-.97,2.29-2.29,2.29s-2.29-1.01-2.29-2.24Zm.7,7.3h3.12v23.15h-3.12v-23.15Z"/><path class="c" d="M320.23,123.98v14.35h-2.99v-3.61c-1.41,2.38-4.14,3.83-7.97,3.83-5.24,0-8.45-2.73-8.45-6.73,0-3.56,2.29-6.56,8.93-6.56h7.35v-1.41c0-3.96-2.25-6.12-6.56-6.12-2.99,0-5.81,1.06-7.7,2.73l-1.41-2.33c2.33-1.98,5.76-3.12,9.42-3.12,5.98,0,9.37,2.99,9.37,8.98Zm-3.12,7.39v-3.78h-7.26c-4.49,0-5.94,1.76-5.94,4.14,0,2.68,2.16,4.36,5.85,4.36s6.12-1.67,7.35-4.71Z"/><path class="c" d="M340.91,136.92c-1.23,1.1-3.08,1.63-4.88,1.63-4.36,0-6.78-2.46-6.78-6.73v-13.99h-4.14v-2.64h4.14v-5.06h3.12v5.06h7.04v2.64h-7.04v13.82c0,2.73,1.41,4.22,4,4.22,1.28,0,2.55-.4,3.43-1.19l1.1,2.24Z"/><path class="c" d="M345.88,107.87c0-1.19,1.01-2.2,2.29-2.2s2.29,.97,2.29,2.16c0,1.28-.97,2.29-2.29,2.29s-2.29-1.01-2.29-2.24Zm.7,7.3h3.12v23.15h-3.12v-23.15Z"/><path class="c" d="M356.08,126.75c0-6.86,5.02-11.75,11.79-11.75s11.75,4.88,11.75,11.75-4.97,11.79-11.75,11.79-11.79-4.93-11.79-11.79Zm20.38,0c0-5.41-3.65-9.02-8.58-9.02s-8.63,3.61-8.63,9.02,3.7,9.02,8.63,9.02,8.58-3.61,8.58-9.02Z"/><path class="c" d="M407.3,124.9v13.42h-3.12v-13.11c0-4.88-2.55-7.39-6.95-7.39-4.97,0-8.1,3.08-8.1,8.36v12.15h-3.12v-23.15h2.99v4.27c1.67-2.82,4.8-4.44,8.8-4.44,5.63,0,9.5,3.26,9.5,9.9Z"/></g></g><g id="b"/></svg>