<svg id="Capa_1" data-name="Capa 1" xmlns="http://www.w3.org/2000/svg" viewBox="0 0 318.64 132.53"><defs><style>.cls-1{fill:#155c9a;}</style></defs><title>01- SCION ASSOCIATION LOGO BLUE</title><path class="cls-1" d="M60.42,60.42A16.89,16.89,0,0,0,57,55.36a23.14,23.14,0,0,0-4.88-3.72c-1.82-1-3.68-2-5.58-2.89l-5.57-2.61a30.12,30.12,0,0,1-4.88-2.84,13.21,13.21,0,0,1-3.44-3.57,8.7,8.7,0,0,1-1.29-4.8A9.89,9.89,0,0,1,32,31.32a7.9,7.9,0,0,1,2-2.95,10,10,0,0,1,3.41-2,14.42,14.42,0,0,1,4.85-.74,18.41,18.41,0,0,1,5.4.74A26.32,26.32,0,0,1,51.82,28q1.76.9,3,1.62a4.14,4.14,0,0,0,1.78.73,1,1,0,0,0,.65-.23,1.49,1.49,0,0,0,.44-.73,6.36,6.36,0,0,0,.23-1.21A16,16,0,0,0,58,26.57c0-.66,0-1.19,0-1.61a7.84,7.84,0,0,0-.16-1.05,2.68,2.68,0,0,0-.26-.73,3.7,3.7,0,0,0-.64-.77,9.06,9.06,0,0,0-2-1.29,22.63,22.63,0,0,0-3.54-1.45,30.78,30.78,0,0,0-4.23-1,26.13,26.13,0,0,0-4.47-.39,27.25,27.25,0,0,0-8.08,1.16A19,19,0,0,0,28,22.8a15.35,15.35,0,0,0-4.23,5.5,17.42,17.42,0,0,0-1.53,7.46,16.91,16.91,0,0,0,1.32,7A17.38,17.38,0,0,0,27,47.84a23,23,0,0,0,4.8,3.77,60.58,60.58,0,0,0,5.52,2.92l5.56,2.58a31,31,0,0,1,4.82,2.79,13,13,0,0,1,3.41,3.54,8.8,8.8,0,0,1,1.29,4.85,11.33,11.33,0,0,1-.93,4.7,9.43,9.43,0,0,1-2.66,3.49,12.25,12.25,0,0,1-4.13,2.19,17,17,0,0,1-5.29.78,22.53,22.53,0,0,1-6.74-.91,32.69,32.69,0,0,1-5-1.93,33.46,33.46,0,0,1-3.39-1.91,4.12,4.12,0,0,0-2-.88,1.43,1.43,0,0,0-.72.18,1.31,1.31,0,0,0-.51.64,4.23,4.23,0,0,0-.31,1.22,13.88,13.88,0,0,0-.11,1.88,9.24,9.24,0,0,0,.29,2.56,3.79,3.79,0,0,0,.87,1.58,10.3,10.3,0,0,0,2.12,1.49,24.24,24.24,0,0,0,3.77,1.71,34.38,34.38,0,0,0,5.11,1.39A32,32,0,0,0,39,87a30.13,30.13,0,0,0,9-1.29,20.9,20.9,0,0,0,7.23-3.85A18,18,0,0,0,60,75.68a19.48,19.48,0,0,0,1.73-8.37,16.57,16.57,0,0,0-1.32-6.89"/><path class="cls-1" d="M127.7,34.67A26.14,26.14,0,0,0,123.22,27a23.32,23.32,0,0,0-9.12-6.48,34.05,34.05,0,0,0-12.85-2.22A33.88,33.88,0,0,0,87.87,20.7a25.3,25.3,0,0,0-9.55,7,29.94,29.94,0,0,0-5.74,11A50.62,50.62,0,0,0,70.67,53a55,55,0,0,0,1.76,14.61,27.91,27.91,0,0,0,5.34,10.64,23,23,0,0,0,9.09,6.53A34.37,34.37,0,0,0,99.9,87a33.88,33.88,0,0,0,13.38-2.45,25,25,0,0,0,9.53-7,29.66,29.66,0,0,0,5.06-9.21h-9.73a23.23,23.23,0,0,1-1.6,3,17.63,17.63,0,0,1-6.4,5.87,20.29,20.29,0,0,1-9.8,2.16,21.43,21.43,0,0,1-9.77-2,15.9,15.9,0,0,1-6.22-5.58,24.09,24.09,0,0,1-3.3-8.55,56.21,56.21,0,0,1-1-10.84,47,47,0,0,1,1.06-10.15,23.82,23.82,0,0,1,3.51-8.44A18.2,18.2,0,0,1,91,28a19.84,19.84,0,0,1,9.69-2.17,21,21,0,0,1,9.7,2,16.14,16.14,0,0,1,6.26,5.6c.26.39.48.8.71,1.21H127.7"/><path class="cls-1" d="M217.7,52.49a49.21,49.21,0,0,1-1,10.28,24.77,24.77,0,0,1-3.45,8.54,17.52,17.52,0,0,1-6.4,5.86,20.15,20.15,0,0,1-9.8,2.17,21.46,21.46,0,0,1-9.77-2A15.8,15.8,0,0,1,181,71.78a24.28,24.28,0,0,1-3.31-8.55,56.21,56.21,0,0,1-1-10.84,47.64,47.64,0,0,1,1.06-10.15,24.19,24.19,0,0,1,3.51-8.44A18.29,18.29,0,0,1,187.68,28a19.85,19.85,0,0,1,9.7-2.17,20.93,20.93,0,0,1,9.69,2,16.24,16.24,0,0,1,6.27,5.6,24.35,24.35,0,0,1,3.35,8.47,52.29,52.29,0,0,1,1,10.56m9.4-.62a52.66,52.66,0,0,0-1.79-14.38A27.44,27.44,0,0,0,219.89,27a23.21,23.21,0,0,0-9.11-6.48,38.05,38.05,0,0,0-26.24.23,25.37,25.37,0,0,0-9.55,7,29.78,29.78,0,0,0-5.73,11A50.26,50.26,0,0,0,167.35,53a55,55,0,0,0,1.75,14.61,27.92,27.92,0,0,0,5.35,10.64,22.9,22.9,0,0,0,9.09,6.53,34.3,34.3,0,0,0,13,2.25A33.87,33.87,0,0,0,210,84.59a25,25,0,0,0,9.53-7,30.66,30.66,0,0,0,5.71-11.07,52,52,0,0,0,1.91-14.62"/><path class="cls-1" d="M290.34,20.73a1.12,1.12,0,0,0-.22-.67,1.65,1.65,0,0,0-.71-.54,4.32,4.32,0,0,0-1.36-.34,17.68,17.68,0,0,0-2.07-.1,18.89,18.89,0,0,0-2.21.1,4.72,4.72,0,0,0-1.36.34,1.66,1.66,0,0,0-.73.54,1.12,1.12,0,0,0-.22.67V57q0,4.08,0,8.5t.12,8.49h-.05c-.8-1.61-1.6-3.22-2.42-4.83s-1.64-3.22-2.47-4.88-1.7-3.33-2.59-5-1.83-3.45-2.8-5.24L255.61,24.65A23.41,23.41,0,0,0,254,22a7.5,7.5,0,0,0-1.6-1.66,5.41,5.41,0,0,0-1.87-.85,11,11,0,0,0-2.58-.26h-4.37a4.2,4.2,0,0,0-2.56.88,3.45,3.45,0,0,0-1.17,2.94V84.71a1.27,1.27,0,0,0,.21.7,1.35,1.35,0,0,0,.71.52,7.47,7.47,0,0,0,1.34.31,17.84,17.84,0,0,0,4.3,0,8,8,0,0,0,1.36-.31,1.36,1.36,0,0,0,.74-.52,1.29,1.29,0,0,0,.22-.7V44.38q0-3.83-.05-7.69t-.16-7.59h.1q1.41,3,3,6.27t3.22,6.17l20.39,38a26.45,26.45,0,0,0,2,3.31,10.49,10.49,0,0,0,1.87,2,5.42,5.42,0,0,0,2,1,9.33,9.33,0,0,0,2.43.28h2.94a5.08,5.08,0,0,0,1.39-.2,3.83,3.83,0,0,0,1.26-.67,3.6,3.6,0,0,0,.9-1.19,4,4,0,0,0,.35-1.76V20.73"/><path class="cls-1" d="M149.18,27a5.69,5.69,0,1,1,5.68-5.68A5.69,5.69,0,0,1,149.18,27Zm0-8.66a3,3,0,1,0,3,3A3,3,0,0,0,149.18,18.29Z"/><path class="cls-1" d="M142.1,59h13.62l-.7-7.91H142.8L142.1,59m12-18.7h-10.3l-.64,7.13H154.7Zm-.32-3.66-.39-4.37a1,1,0,0,0-.2-.59,1.43,1.43,0,0,0-.73-.41,10.46,10.46,0,0,0-1.37-.25,17.77,17.77,0,0,0-2.14-.11,16.93,16.93,0,0,0-2,.11,11.57,11.57,0,0,0-1.39.25,1.62,1.62,0,0,0-.78.41.88.88,0,0,0-.23.59l-.39,4.37ZM141,71.55h15.86l-.79-8.93H141.77ZM158,85l-.87-9.8H140.66l-.88,9.8c0,.22-.32,1.36,9.13,1.36S158,85.23,158,85"/><path class="cls-1" d="M26.17,114.64l-2,4.47H20.65l8.66-19.66h3.55l8.66,19.66H38l-2-4.47Zm8.49-3.07-3.57-8.1-3.58,8.1Z"/><path class="cls-1" d="M57.36,102a4.38,4.38,0,0,0-2.37.59,2,2,0,0,0-.93,1.79,2.07,2.07,0,0,0,.93,1.82,14.06,14.06,0,0,0,3.95,1.37,10.78,10.78,0,0,1,4.55,2A4.86,4.86,0,0,1,65,113.55a5.14,5.14,0,0,1-1.94,4.18,7.69,7.69,0,0,1-5.08,1.6,12,12,0,0,1-8.19-3.17l2.08-2.51a9.36,9.36,0,0,0,6.19,2.59,4.18,4.18,0,0,0,2.54-.69,2.16,2.16,0,0,0,1-1.83,2.05,2.05,0,0,0-.89-1.77,9.46,9.46,0,0,0-3-1.15,28.25,28.25,0,0,1-3.29-1,7.54,7.54,0,0,1-2-1.14,4.76,4.76,0,0,1-1.74-4,4.93,4.93,0,0,1,2-4.2A8,8,0,0,1,57.49,99a11.82,11.82,0,0,1,3.74.62,10,10,0,0,1,3.21,1.75l-1.78,2.5a6.67,6.67,0,0,0-2.36-1.29A9,9,0,0,0,57.36,102Z"/><path class="cls-1" d="M82.25,102a4.39,4.39,0,0,0-2.38.59,2,2,0,0,0-.93,1.79,2.07,2.07,0,0,0,.93,1.82,14.19,14.19,0,0,0,3.95,1.37,10.77,10.77,0,0,1,4.56,2,4.86,4.86,0,0,1,1.53,3.89A5.17,5.17,0,0,1,88,117.73a7.72,7.72,0,0,1-5.09,1.6,12,12,0,0,1-8.18-3.17l2.08-2.51A9.33,9.33,0,0,0,83,116.24a4.24,4.24,0,0,0,2.55-.69,2.15,2.15,0,0,0,.94-1.83,2,2,0,0,0-.88-1.77,9.44,9.44,0,0,0-3.06-1.15,28.25,28.25,0,0,1-3.29-1,7.33,7.33,0,0,1-2-1.14,4.76,4.76,0,0,1-1.75-4,4.94,4.94,0,0,1,2-4.2A8,8,0,0,1,82.37,99a11.78,11.78,0,0,1,3.74.62,9.92,9.92,0,0,1,3.21,1.75l-1.77,2.5a6.67,6.67,0,0,0-2.36-1.29A9.1,9.1,0,0,0,82.25,102Z"/><path class="cls-1" d="M117.64,116.39a10.79,10.79,0,0,1-14.74,0,10.31,10.31,0,0,1,0-14.5,10.76,10.76,0,0,1,14.74,0,10.31,10.31,0,0,1,0,14.5Zm-2.44-12.3a6.89,6.89,0,0,0-9.87,0,7.35,7.35,0,0,0,0,10.1,6.89,6.89,0,0,0,9.87,0,7.35,7.35,0,0,0,0-10.1Z"/><path class="cls-1" d="M141,116.1a6.87,6.87,0,0,0,3-.58,10.41,10.41,0,0,0,2.59-1.84l2.13,2.19a9.81,9.81,0,0,1-7.58,3.46,10.12,10.12,0,0,1-7.39-2.87,10.41,10.41,0,0,1,.06-14.56A10.36,10.36,0,0,1,141.27,99a9.87,9.87,0,0,1,7.63,3.38l-2.11,2.3a9.2,9.2,0,0,0-2.65-1.88,7.42,7.42,0,0,0-2.94-.53,7,7,0,0,0-5,1.92,6.51,6.51,0,0,0-2,4.92,6.8,6.8,0,0,0,2,5A6.52,6.52,0,0,0,141,116.1Z"/><path class="cls-1" d="M159.84,99.45h3.32v19.66h-3.32Z"/><path class="cls-1" d="M178.57,114.64l-2,4.47h-3.54l8.66-19.66h3.54l8.66,19.66h-3.54l-2-4.47Zm8.49-3.07-3.57-8.1-3.57,8.1Z"/><path class="cls-1" d="M209.7,102.49v16.62h-3.32V102.49h-6v-3h15.24v3Z"/><path class="cls-1" d="M226.43,99.45h3.31v19.66h-3.31Z"/><path class="cls-1" d="M258.82,116.39a10.79,10.79,0,0,1-14.74,0,10.31,10.31,0,0,1,0-14.5,10.76,10.76,0,0,1,14.74,0,10.31,10.31,0,0,1,0,14.5Zm-2.43-12.3a6.89,6.89,0,0,0-9.87,0,7.35,7.35,0,0,0,0,10.1,6.89,6.89,0,0,0,9.87,0,7.35,7.35,0,0,0,0-10.1Z"/><path class="cls-1" d="M287.89,99.45h3.32v19.66h-3.6l-11.13-14.34v14.34h-3.32V99.45h3.32l11.41,14.68Z"/></svg>