<svg id="Capa_1" data-name="Capa 1" xmlns="http://www.w3.org/2000/svg" viewBox="0 0 318.64 132.53"><defs><style>.cls-1{fill:#fff;}</style></defs><title>02- SCION ASSOCIATION LOGO WHITE SVG</title><path class="cls-1" d="M60.52,60.42a16.89,16.89,0,0,0-3.46-5.06,23.4,23.4,0,0,0-4.88-3.72c-1.83-1-3.69-2-5.58-2.89L41,46.14a31,31,0,0,1-4.88-2.84,13.16,13.16,0,0,1-3.43-3.57,8.7,8.7,0,0,1-1.29-4.8,9.69,9.69,0,0,1,.67-3.61,7.88,7.88,0,0,1,2-2.95,10.1,10.1,0,0,1,3.41-2,14.5,14.5,0,0,1,4.85-.74,18.41,18.41,0,0,1,5.4.74A26.46,26.46,0,0,1,51.92,28q1.76.9,3,1.62a4.09,4.09,0,0,0,1.78.73,1,1,0,0,0,.65-.23,1.56,1.56,0,0,0,.43-.73A6.29,6.29,0,0,0,58,28.22a16.21,16.21,0,0,0,.07-1.65c0-.66,0-1.19-.05-1.61a6.6,6.6,0,0,0-.15-1.05,3.06,3.06,0,0,0-.26-.73,3.84,3.84,0,0,0-.65-.77,8.6,8.6,0,0,0-2-1.29,22.9,22.9,0,0,0-3.53-1.45,30.93,30.93,0,0,0-4.24-1,26.13,26.13,0,0,0-4.47-.39,27.3,27.3,0,0,0-8.08,1.16,19,19,0,0,0-6.45,3.39,15.38,15.38,0,0,0-4.24,5.5,17.57,17.57,0,0,0-1.52,7.46,16.91,16.91,0,0,0,1.32,7,17.35,17.35,0,0,0,3.43,5.08,23,23,0,0,0,4.8,3.77,59.46,59.46,0,0,0,5.53,2.92L43,57.11a30.65,30.65,0,0,1,4.83,2.79,13.14,13.14,0,0,1,3.41,3.54,8.8,8.8,0,0,1,1.29,4.85,11.33,11.33,0,0,1-.93,4.7A9.54,9.54,0,0,1,49,76.48a12.25,12.25,0,0,1-4.13,2.19,17.09,17.09,0,0,1-5.3.78,22.62,22.62,0,0,1-6.74-.91,31.92,31.92,0,0,1-8.36-3.84,4.19,4.19,0,0,0-2-.88,1.37,1.37,0,0,0-.72.18,1.32,1.32,0,0,0-.52.64,4.58,4.58,0,0,0-.31,1.22,14.08,14.08,0,0,0-.1,1.88A9.3,9.3,0,0,0,21,80.3a3.8,3.8,0,0,0,.88,1.58A9.76,9.76,0,0,0,24,83.37a23.82,23.82,0,0,0,3.77,1.71,34,34,0,0,0,5.11,1.39,31.87,31.87,0,0,0,6.22.57,30.09,30.09,0,0,0,9-1.29A20.9,20.9,0,0,0,55.3,81.9a17.89,17.89,0,0,0,4.8-6.22,19.33,19.33,0,0,0,1.73-8.37,16.74,16.74,0,0,0-1.31-6.89"/><path class="cls-1" d="M127.79,34.67A26.14,26.14,0,0,0,123.31,27a23.21,23.21,0,0,0-9.11-6.48,34.11,34.11,0,0,0-12.86-2.22A33.92,33.92,0,0,0,88,20.7a25.37,25.37,0,0,0-9.55,7,29.78,29.78,0,0,0-5.73,11A50.26,50.26,0,0,0,70.77,53a55,55,0,0,0,1.75,14.61,27.92,27.92,0,0,0,5.35,10.64A22.9,22.9,0,0,0,87,84.79,34.3,34.3,0,0,0,100,87a33.87,33.87,0,0,0,13.37-2.45,25,25,0,0,0,9.53-7A29.88,29.88,0,0,0,128,68.35h-9.73a22.09,22.09,0,0,1-1.61,3,17.6,17.6,0,0,1-6.39,5.87,20.32,20.32,0,0,1-9.8,2.16,21.5,21.5,0,0,1-9.78-2,15.87,15.87,0,0,1-6.21-5.58,24.09,24.09,0,0,1-3.3-8.55,55.42,55.42,0,0,1-1-10.84,47.65,47.65,0,0,1,1-10.15,24.19,24.19,0,0,1,3.51-8.44A18.29,18.29,0,0,1,91.1,28a19.88,19.88,0,0,1,9.7-2.17,20.93,20.93,0,0,1,9.69,2,16.17,16.17,0,0,1,6.27,5.6c.25.39.47.8.7,1.21h10.33"/><path class="cls-1" d="M217.79,52.49a49.22,49.22,0,0,1-1,10.28,24.78,24.78,0,0,1-3.46,8.54,17.41,17.41,0,0,1-6.39,5.86,20.2,20.2,0,0,1-9.8,2.17,21.43,21.43,0,0,1-9.77-2,15.9,15.9,0,0,1-6.22-5.58,24.09,24.09,0,0,1-3.3-8.55,56.21,56.21,0,0,1-1-10.84,47,47,0,0,1,1.06-10.15,24,24,0,0,1,3.5-8.44A18.38,18.38,0,0,1,187.77,28a19.9,19.9,0,0,1,9.7-2.17,21,21,0,0,1,9.7,2,16.14,16.14,0,0,1,6.26,5.6,24.36,24.36,0,0,1,3.36,8.47,52.32,52.32,0,0,1,1,10.56m9.4-.62a52.68,52.68,0,0,0-1.78-14.38A27.71,27.71,0,0,0,220,27a23.32,23.32,0,0,0-9.12-6.48,38,38,0,0,0-26.23.23,25.41,25.41,0,0,0-9.56,7,29.92,29.92,0,0,0-5.73,11A50.62,50.62,0,0,0,167.44,53a55,55,0,0,0,1.76,14.61,27.91,27.91,0,0,0,5.34,10.64,22.9,22.9,0,0,0,9.09,6.53,34.34,34.34,0,0,0,13,2.25,34,34,0,0,0,13.38-2.45,24.92,24.92,0,0,0,9.52-7,30.51,30.51,0,0,0,5.71-11.07,52,52,0,0,0,1.91-14.62"/><path class="cls-1" d="M290.44,20.73a1.19,1.19,0,0,0-.22-.67,1.71,1.71,0,0,0-.71-.54,4.39,4.39,0,0,0-1.36-.34,17.8,17.8,0,0,0-2.07-.1,18.78,18.78,0,0,0-2.21.1,4.63,4.63,0,0,0-1.36.34,1.7,1.7,0,0,0-.74.54,1.19,1.19,0,0,0-.22.67V57q0,4.08,0,8.5t.13,8.49h0q-1.2-2.41-2.42-4.83c-.82-1.6-1.64-3.22-2.47-4.88s-1.7-3.33-2.6-5-1.83-3.45-2.8-5.24L255.7,24.65A20.83,20.83,0,0,0,254.08,22a7.28,7.28,0,0,0-1.6-1.66,5.44,5.44,0,0,0-1.86-.85,11.12,11.12,0,0,0-2.59-.26h-4.37a4.24,4.24,0,0,0-2.56.88,3.45,3.45,0,0,0-1.17,2.94V84.71a1.21,1.21,0,0,0,.22.7,1.32,1.32,0,0,0,.71.52,7.33,7.33,0,0,0,1.33.31,15.53,15.53,0,0,0,2.15.13,15.69,15.69,0,0,0,2.16-.13,8.46,8.46,0,0,0,1.36-.31,1.33,1.33,0,0,0,.73-.52,1.21,1.21,0,0,0,.22-.7V44.38q0-3.83-.05-7.69c0-2.58-.09-5.11-.15-7.59h.1q1.39,3,3,6.27c1.08,2.15,2.16,4.21,3.22,6.17l20.39,38a27.71,27.71,0,0,0,2,3.31,10.81,10.81,0,0,0,1.87,2,5.46,5.46,0,0,0,2,1,9.22,9.22,0,0,0,2.43.28h2.94a5.06,5.06,0,0,0,1.38-.2,3.43,3.43,0,0,0,2.17-1.86,4.09,4.09,0,0,0,.35-1.76V20.73"/><path class="cls-1" d="M149.27,27A5.69,5.69,0,1,1,155,21.27,5.69,5.69,0,0,1,149.27,27Zm0-8.66a3,3,0,1,0,3,3A3,3,0,0,0,149.27,18.29Z"/><path class="cls-1" d="M142.19,59h13.63l-.7-7.91H142.89l-.7,7.91m12-18.7H143.85l-.63,7.13h11.57Zm-.33-3.66-.38-4.37a.91.91,0,0,0-.21-.59,1.44,1.44,0,0,0-.72-.41,10.79,10.79,0,0,0-1.37-.25,18,18,0,0,0-2.15-.11,16.63,16.63,0,0,0-2,.11,11.78,11.78,0,0,0-1.4.25,1.58,1.58,0,0,0-.77.41.84.84,0,0,0-.24.59l-.38,4.37ZM141.07,71.55h15.87l-.8-8.93H141.87ZM158.13,85l-.87-9.8H140.75l-.87,9.8c0,.22-.33,1.36,9.12,1.36s9.13-1.14,9.13-1.36"/><path class="cls-1" d="M26.26,114.64l-2,4.47H20.75l8.66-19.66H33l8.66,19.66H38.07l-2-4.47Zm8.49-3.07-3.57-8.1-3.57,8.1Z"/><path class="cls-1" d="M57.46,102a4.39,4.39,0,0,0-2.38.59,2,2,0,0,0-.93,1.79,2.07,2.07,0,0,0,.93,1.82,14.19,14.19,0,0,0,4,1.37,10.77,10.77,0,0,1,4.56,2,4.86,4.86,0,0,1,1.53,3.89,5.17,5.17,0,0,1-1.94,4.18,7.72,7.72,0,0,1-5.09,1.6,12,12,0,0,1-8.18-3.17L52,113.65a9.35,9.35,0,0,0,6.18,2.59,4.24,4.24,0,0,0,2.55-.69,2.15,2.15,0,0,0,.94-1.83,2,2,0,0,0-.88-1.77,9.46,9.46,0,0,0-3.05-1.15,27.93,27.93,0,0,1-3.3-1,7.48,7.48,0,0,1-2-1.14,4.76,4.76,0,0,1-1.75-4,4.94,4.94,0,0,1,2-4.2A8,8,0,0,1,57.58,99a11.78,11.78,0,0,1,3.74.62,9.92,9.92,0,0,1,3.21,1.75l-1.77,2.5a6.67,6.67,0,0,0-2.36-1.29A9.1,9.1,0,0,0,57.46,102Z"/><path class="cls-1" d="M82.34,102a4.38,4.38,0,0,0-2.37.59,2,2,0,0,0-.93,1.79,2.07,2.07,0,0,0,.93,1.82,14.06,14.06,0,0,0,4,1.37,10.78,10.78,0,0,1,4.55,2A4.86,4.86,0,0,1,90,113.55a5.14,5.14,0,0,1-1.94,4.18,7.72,7.72,0,0,1-5.09,1.6,12,12,0,0,1-8.18-3.17l2.08-2.51a9.36,9.36,0,0,0,6.19,2.59,4.18,4.18,0,0,0,2.54-.69,2.16,2.16,0,0,0,1-1.83,2.05,2.05,0,0,0-.89-1.77,9.46,9.46,0,0,0-3-1.15,28.25,28.25,0,0,1-3.29-1,7.39,7.39,0,0,1-2-1.14,4.76,4.76,0,0,1-1.74-4,4.93,4.93,0,0,1,2-4.2A8,8,0,0,1,82.47,99a11.87,11.87,0,0,1,3.74.62,9.87,9.87,0,0,1,3.2,1.75l-1.77,2.5a6.67,6.67,0,0,0-2.36-1.29A9,9,0,0,0,82.34,102Z"/><path class="cls-1" d="M117.73,116.39a10.78,10.78,0,0,1-14.73,0,10.31,10.31,0,0,1,0-14.5,10.75,10.75,0,0,1,14.73,0,10.31,10.31,0,0,1,0,14.5Zm-2.43-12.3a6.89,6.89,0,0,0-9.87,0,7.35,7.35,0,0,0,0,10.1,6.89,6.89,0,0,0,9.87,0,7.35,7.35,0,0,0,0-10.1Z"/><path class="cls-1" d="M141,116.1a6.84,6.84,0,0,0,3-.58,10.06,10.06,0,0,0,2.59-1.84l2.14,2.19a9.83,9.83,0,0,1-7.58,3.46,10.14,10.14,0,0,1-7.4-2.87,10.41,10.41,0,0,1,.06-14.56A10.39,10.39,0,0,1,141.36,99a9.91,9.91,0,0,1,7.64,3.38l-2.11,2.3a9.23,9.23,0,0,0-2.66-1.88,7.35,7.35,0,0,0-2.94-.53,7,7,0,0,0-5,1.92,6.51,6.51,0,0,0-2,4.92,6.8,6.8,0,0,0,2,5A6.52,6.52,0,0,0,141,116.1Z"/><path class="cls-1" d="M159.94,99.45h3.31v19.66h-3.31Z"/><path class="cls-1" d="M178.66,114.64l-2,4.47h-3.54l8.66-19.66h3.55L194,119.11h-3.55l-2-4.47Zm8.5-3.07-3.58-8.1-3.57,8.1Z"/><path class="cls-1" d="M209.79,102.49v16.62h-3.32V102.49h-6v-3h15.24v3Z"/><path class="cls-1" d="M226.52,99.45h3.32v19.66h-3.32Z"/><path class="cls-1" d="M258.91,116.39a10.78,10.78,0,0,1-14.73,0,10.31,10.31,0,0,1,0-14.5,10.75,10.75,0,0,1,14.73,0,10.31,10.31,0,0,1,0,14.5Zm-2.43-12.3a6.89,6.89,0,0,0-9.87,0,7.35,7.35,0,0,0,0,10.1,6.89,6.89,0,0,0,9.87,0,7.35,7.35,0,0,0,0-10.1Z"/><path class="cls-1" d="M288,99.45h3.32v19.66h-3.6l-11.14-14.34v14.34h-3.32V99.45h3.32L288,114.13Z"/></svg>